<svg xmlns="http://www.w3.org/2000/svg" width="149.551" height="98.146" viewBox="0 0 149.551 98.146">
  <g id="Roar_Bikes_Logo" data-name="Roar Bikes Logo" transform="translate(-18.6 -31.305)">
    <path id="Path_1" data-name="Path 1" d="M205.153,142.076c1.194-1.826,2.388-3.653,3.582-5.549,3.3-5.479,3.3-5.479-1.194-10.045-1.967-2.037-3.934-4.074-6.041-6.182,1.9-1.967,3.653-3.723,5.69-5.9a70.06,70.06,0,0,0,4.215,6.533,11.231,11.231,0,0,0,3.653,3.161c2.248,1.124,4.777,1.826,7.516,2.88A79.27,79.27,0,0,1,205.153,142.076Z" transform="translate(-54.423 -24.725)" fill="#fff" fill-rule="evenodd"/>
    <path id="Path_2" data-name="Path 2" d="M147.333,118c-13.908,11.8-29.924,17.983-48.188,17.983-18.4,0-34.35-6.252-48.188-17.983-4.566,4.777-9.062,9.483-13.557,14.119,33.436,31.048,90.615,30.627,123.49,0C156.394,127.413,151.828,122.706,147.333,118ZM67.816,137.458a2.763,2.763,0,0,1-2.459,1.616h0a1.075,1.075,0,0,1,.281.7l.07,1.475c0,.211.14.351.421.492l.281.14-.7,1.475-1.4-.632c-.7-.281-.913-.562-.913-1.124l-.07-2.388c0-.351-.14-.492-.562-.7l-.421-.211-.7,1.4.913.421-.7,1.475-4-1.756.7-1.475.983.421,2.529-5.2-.983-.421.7-1.475,3.863,1.756a6.971,6.971,0,0,1,1.616.913A2.374,2.374,0,0,1,67.816,137.458Zm3.934,8.148a4.556,4.556,0,0,1-3.231-5.9,4.828,4.828,0,0,1,6.182-2.95,4.6,4.6,0,0,1,3.3,5.83A4.941,4.941,0,0,1,71.75,145.606Zm15.173,3.161-3.863-.7.281-1.616.773.14-.14-1.264-2.388-.421-.562,1.124.773.14-.281,1.616-3.863-.7.281-1.616.773.14,3.934-6.814,2.669.492,1.124,7.727.773.14Zm10.115.7-1.545-.07c-.773-.07-1.054-.211-1.264-.773l-.983-2.178c-.14-.281-.281-.421-.773-.421H91.98l-.07,1.545.983.07-.14,1.616-4.355-.281.14-1.616,1.054.07.421-5.76-1.054-.07.14-1.616,4.215.281a13.587,13.587,0,0,1,1.9.281,2.425,2.425,0,0,1,1.686,2.669,2.613,2.613,0,0,1-1.686,2.388h0a1.2,1.2,0,0,1,.562.562l.632,1.4c.07.211.281.281.562.351h.351Zm10.888-.773a2.851,2.851,0,0,1-1.335.281l-4.285.351-.07-.7,1.194-.07-.632-7.376-1.194.07-.07-.7,4.144-.351a3.855,3.855,0,0,1,1.616.14,2.03,2.03,0,0,1,1.264,1.826,2.17,2.17,0,0,1-.983,2.037h0a2.25,2.25,0,0,1,1.756,2.037A2.552,2.552,0,0,1,107.925,148.7Zm3.582-.281-.14-.7,1.194-.211L111.3,140.2l-1.194.211-.14-.7,3.3-.562.14.7-1.194.211,1.264,7.305,1.194-.211.14.7Zm11.942-2.459a1.124,1.124,0,0,1-1.4-.351l-2.669-2.669a.829.829,0,0,0-.843-.211l-.913.211.913,3.442,1.194-.281.211.7-3.231.773-.211-.7,1.194-.281-1.9-7.165-1.194.281-.211-.7,3.161-.773.211.7-1.124.281.773,3.021,1.335-.351,1.4-3.582-.913.211-.211-.7,2.81-.7.211.7-.913.211-1.616,3.934h0a1.719,1.719,0,0,1,.562.421l2.6,2.529a.75.75,0,0,0,.773.211l.421-.14.211.7Zm2.248-.632-.281-.7,1.124-.421-2.669-6.954-1.054.421-.281-.7,6.111-2.178.632,1.756-.773.281-.421-1.054-3.372,1.194,1.194,3.091,3.3-1.124.281.7-3.3,1.124,1.194,3.161,3.582-1.264-.421-1.054.773-.281.7,1.756Zm11.028-4.074c-1.194.562-2.88.7-3.442-.421l-.351-.773.773-.351.281.562c.351.7,1.4.632,2.388.211,1.054-.492,1.616-1.4,1.124-2.318-.492-1.054-1.686-.913-3.021-.843-1.264.14-2.669.211-3.372-1.194s.14-2.6,1.475-3.231c1.194-.562,2.6-.7,3.021.14l.421.843-.773.351-.281-.562c-.281-.492-1.264-.351-2.037-.07-.913.421-1.475,1.194-1.054,2.107.492.983,1.545.843,2.74.773,1.4-.14,2.88-.211,3.582,1.264C138.974,139.144,138.2,140.478,136.726,141.251Z" transform="translate(-5.594 -25.797)" fill="#fff" fill-rule="evenodd"/>
    <path id="Path_3" data-name="Path 3" d="M134.759,159.61l-2.178.211-.281-3.512,2.318-.211a1.726,1.726,0,0,1,1.967,1.616,1.65,1.65,0,0,1-.843,1.686C135.461,159.469,135.04,159.54,134.759,159.61Z" transform="translate(-33.832 -37.131)" fill="#fff" fill-rule="evenodd"/>
    <path id="Path_4" data-name="Path 4" d="M134.229,153.709l-2.248.211-.281-3.091,2.037-.14a1.92,1.92,0,0,1,1.124.14,1.6,1.6,0,0,1,.773,1.264A1.38,1.38,0,0,1,134.229,153.709Z" transform="translate(-33.653 -35.515)" fill="#fff" fill-rule="evenodd"/>
    <path id="Path_5" data-name="Path 5" d="M116.254,154.388l-1.054-.07.14-2.318.843.07a1.594,1.594,0,0,1,.913.211.9.9,0,0,1,.421,1.054C117.518,154.107,117.026,154.459,116.254,154.388Z" transform="translate(-28.744 -35.913)" fill="#fff" fill-rule="evenodd"/>
    <path id="Path_6" data-name="Path 6" d="M102.343,151.513a3.06,3.06,0,0,0,.351-.913h.07a3.765,3.765,0,0,0,0,.983l.14,1.756-1.4-.211Z" transform="translate(-24.667 -35.497)" fill="#fff" fill-rule="evenodd"/>
    <path id="Path_7" data-name="Path 7" d="M86.479,152.36a2.549,2.549,0,0,1-1.545-3.372,2.665,2.665,0,0,1,3.231-1.826,2.452,2.452,0,0,1,1.545,3.231A2.591,2.591,0,0,1,86.479,152.36Z" transform="translate(-19.691 -34.447)" fill="#fff" fill-rule="evenodd"/>
    <path id="Path_8" data-name="Path 8" d="M74.883,144.429l-.983-.421,1.054-2.107.773.351a2.441,2.441,0,0,1,.773.492.947.947,0,0,1,0,1.124A1.13,1.13,0,0,1,74.883,144.429Z" transform="translate(-16.455 -32.908)" fill="#fff" fill-rule="evenodd"/>
    <path id="Path_9" data-name="Path 9" d="M30.542,132.683c1.967,3.161,3.863,6.392,5.76,9.623-.14.14-.281.351-.421.492-5.62-4.987-11.309-10.045-17.28-15.313,3.863-1.616,7.516-2.318,10.045-4.355,2.459-2.037,3.723-5.409,5.76-8.429,1.967,1.967,3.793,3.793,5.76,5.83-3.091,3.161-6.041,6.252-9.132,9.272C29.909,130.645,29.769,131.418,30.542,132.683Z" transform="translate(0 -24.815)" fill="#fff" fill-rule="evenodd"/>
    <path id="Path_10" data-name="Path 10" d="M40.951,144.5c2.81,2.037,5.69,4.074,8.57,6.182-.7,1.054-1.4,2.107-2.318,3.512-2.318-3.3-4.425-6.322-6.6-9.413A1.233,1.233,0,0,1,40.951,144.5Z" transform="translate(-6.546 -33.682)" fill="#fff" fill-rule="evenodd"/>
    <path id="Path_11" data-name="Path 11" d="M205.91,145.211c-2.037,2.95-4,5.83-6.252,9.132-.983-1.335-1.686-2.388-2.459-3.442,2.88-2.037,5.549-4,8.289-5.9A.607.607,0,0,1,205.91,145.211Z" transform="translate(-53.143 -33.831)" fill="#fff" fill-rule="evenodd"/>
    <path id="Path_12" data-name="Path 12" d="M141.925,66.634a8.7,8.7,0,0,0,1.826-.7c.07,1.124.281,4.215-1.9,5.83-.281-.211-.632-.351-.843-.492l.913-4.636ZM105.679,52.8a15.847,15.847,0,0,1,4.425-3.3c-15.243,20.582,14.611,33.717,8.359,51.349,4.987-2.74,7.586-7.024,7.727-11.59.421-12.082-18.193-15.313-8.219-33.085-3.793,11.942-.351,16.156,8.219,22.478-1.545-3.723.632-9.132,5.2-11.942l-6.884-2.88,9.483,2.388c-4.285,2.178-8.359,9.413-4.847,13.346,2.318,2.6,6.884.913,8.851,5.83,2.74-1.616,2.88-3.582,3.091-6.182a5.936,5.936,0,0,1,.632,3.582c2.88-2.74,2.529-8.5-1.475-10.326a21.86,21.86,0,0,0-4.5,1.9c-2.318,1.194-1.264,2.6-4.215,2.388,0,0-1.124-1.054,2.88-3.161a31.737,31.737,0,0,1,5.339-2.318l.913-4.566a7.162,7.162,0,0,0-1.686-1.756c-.843-.7-2.178-1.4-3.091-2.107-.351-.281-.843-.351-.913-.632.7-1.475,4.5-.983,5.971-.843a8.939,8.939,0,0,1,2.529-.211c-2.88-2.669-10.256-8.078-13.7-10.747a21.285,21.285,0,0,0-2.6-4.847,10.117,10.117,0,0,1,3.512,4.285l1.967,1.264c1.194-6.884-1.335-18.4-13.908-17.35a10.717,10.717,0,0,1,3.372,6.252c-13.417-18.826-41.3-3.723-39.9,13.206.913-1.826,6.533-7.446,11.52-8.078C82.919,51.672,72.453,67.056,83.271,79.77c-3.231-10.747,3.3-22.338,11.169-26.693-23.11,25.148.07,37.3,8.64,51.559,8.5-16.3-22.548-18.966-10.818-43.2-4.074,15.735,4.355,23.251,12.293,28.519-7.305-11.028-6.462-23.672-.14-35.122-4.987,4.285-9.343,10.607-8.57,20.933-2.529-8.781.562-16.648,7.024-22.408-4.355-5.058-3.582-13.487,3.091-15.032a8.337,8.337,0,0,1,9.132,4.987c-6.673-9.062-19.317.211-9.413,9.483ZM89.593,42.681c6.111-9.272,20.511-11.59,27.957-3.512-9.483-6.182-20.652-3.161-27.957,3.512Zm24.867,32.8c-7.024-10.818-7.516-21.284,3.582-28.941-9.764,10.256-7.446,19.387-3.582,28.941ZM103.782,63.333c1.124,15.735,20.02,26.833,11.1,43.622-2.037-13.136-18.334-22.689-11.1-43.622Zm9.553-19.106c-1.756,1.686-4.074.07-8.289,2.74-.913-6.252,6.533-5.971,8.289-2.74Zm13.346,8.71c1.054.421,6.322,6.673,7.095,8.008-2.459-2.107-4.5-3.934-7.235-5.971l-2.107.913.421-1.264-4.425-1.264,3.653-1.335c1.756-.632,1.194-1.4.351-2.318,1.475.421,2.74,1.194,2.248,3.231ZM126.05,102.6a10.812,10.812,0,0,0-.07-6.673c2.178-3.934,3.161-9.834,1.264-13.979C135.322,87.778,137.289,98.877,126.05,102.6Z" transform="translate(-17.888 0)" fill="#fff"/>
  </g>
</svg>
